HIERARCHY
ROOT Hip
{
	OFFSET	0.0000	0.0000	0.0000
	CHANNELS 6 Xposition Yposition Zposition Xrotation Yrotation Zrotation
	JOINT LowerSpine
	{
		OFFSET	0.0000	10.2468	-5.5450
		CHANNELS 3 Xrotation Yrotation Zrotation
		JOINT MiddleSpine
		{
			OFFSET	0.0000	9.3510	0.4885
			CHANNELS 3 Xrotation Yrotation Zrotation
			JOINT Chest
			{
				OFFSET	0.0000	11.5708	-2.5755
				CHANNELS 3 Xrotation Yrotation Zrotation
				JOINT Neck
				{
					OFFSET	0.0000	26.0744	-0.5423
					CHANNELS 3 Xrotation Yrotation Zrotation
					JOINT Head
					{
						OFFSET	-0.0001	14.7245	4.0051
						CHANNELS 3 Xrotation Yrotation Zrotation
						End Site
						{
							OFFSET	0.0001	20.5738	0.6142
						}
					}
				}
				JOINT LClavicle
				{
					OFFSET	2.6325	25.1631	8.6210
					CHANNELS 3 Xrotation Yrotation Zrotation
					JOINT LShoulder
					{
						OFFSET	15.3790	3.6093	-5.8402
						CHANNELS 3 Xrotation Yrotation Zrotation
						JOINT LForearm
						{
							OFFSET	32.6679	-0.1158	-0.2831
							CHANNELS 3 Xrotation Yrotation Zrotation
							JOINT LHand
							{
								OFFSET	27.2520	0.0790	-0.1633
								CHANNELS 3 Xrotation Yrotation Zrotation
								JOINT LFinger1
								{
									OFFSET	10.5621	0.9237	2.9336
									CHANNELS 3 Xrotation Yrotation Zrotation
									JOINT LFinger11
									{
										OFFSET	3.9508	-0.9634	0.6961
										CHANNELS 3 Xrotation Yrotation Zrotation
										JOINT LFinger12
										{
											OFFSET	2.6971	-0.6578	0.4754
											CHANNELS 3 Xrotation Yrotation Zrotation
											End Site
											{
												OFFSET	1.9192	-0.5729	0.3113
											}
										}
									}
								}
								JOINT LFinger2
								{
									OFFSET	10.7197	1.0667	0.2554
									CHANNELS 3 Xrotation Yrotation Zrotation
									JOINT LFinger21
									{
										OFFSET	4.8849	0.0136	-0.0289
										CHANNELS 3 Xrotation Yrotation Zrotation
										JOINT LFinger22
										{
											OFFSET	2.7077	0.0083	-0.0165
											CHANNELS 3 Xrotation Yrotation Zrotation
											End Site
											{
												OFFSET	2.4320	-0.1717	0.0033
											}
										}
									}
								}
								JOINT LFinger3
								{
									OFFSET	10.1592	0.7119	-2.4035
									CHANNELS 3 Xrotation Yrotation Zrotation
									JOINT LFinger31
									{
										OFFSET	4.4325	-0.2244	-0.2775
										CHANNELS 3 Xrotation Yrotation Zrotation
										JOINT LFinger32
										{
											OFFSET	2.5259	-0.1271	-0.1586
											CHANNELS 3 Xrotation Yrotation Zrotation
											End Site
											{
												OFFSET	2.2333	-0.2746	-0.1056
											}
										}
									}
								}
								JOINT LFinger4
								{
									OFFSET	9.4273	-0.7164	-4.1508
									CHANNELS 3 Xrotation Yrotation Zrotation
									JOINT LFinger41
									{
										OFFSET	2.7264	-0.5686	-0.7526
										CHANNELS 3 Xrotation Yrotation Zrotation
										JOINT LFinger42
										{
											OFFSET	1.9994	-0.4164	-0.5523
											CHANNELS 3 Xrotation Yrotation Zrotation
											End Site
											{
												OFFSET	1.7745	-0.4876	-0.4071
											}
										}
									}
								}
								JOINT LFinger0
								{
									OFFSET	2.1850	-1.6538	1.6564
									CHANNELS 3 Xrotation Yrotation Zrotation
									JOINT LFinger01
									{
										OFFSET	4.0680	-1.3359	3.0670
										CHANNELS 3 Xrotation Yrotation Zrotation
										JOINT LFinger02
										{
											OFFSET	2.6787	-0.9585	1.9299
											CHANNELS 3 Xrotation Yrotation Zrotation
											End Site
											{
												OFFSET	1.9698	-0.6781	1.3488
											}
										}
									}
								}
							}
						}
					}
				}
				JOINT RClavicle
				{
					OFFSET	-2.6324	25.1631	8.6210
					CHANNELS 3 Xrotation Yrotation Zrotation
					JOINT RShoulder
					{
						OFFSET	-15.3817	3.6099	-5.8412
						CHANNELS 3 Xrotation Yrotation Zrotation
						JOINT RForearm
						{
							OFFSET	-32.6679	-0.1158	-0.2831
							CHANNELS 3 Xrotation Yrotation Zrotation
							JOINT RHand
							{
								OFFSET	-27.2520	0.0791	-0.1632
								CHANNELS 3 Xrotation Yrotation Zrotation
								JOINT RFinger1
								{
									OFFSET	-10.5622	0.9238	2.9336
									CHANNELS 3 Xrotation Yrotation Zrotation
									JOINT RFinger11
									{
										OFFSET	-3.9508	-0.9634	0.6961
										CHANNELS 3 Xrotation Yrotation Zrotation
										JOINT RFinger12
										{
											OFFSET	-2.6970	-0.6580	0.4754
											CHANNELS 3 Xrotation Yrotation Zrotation
											End Site
											{
												OFFSET	-1.9192	-0.5729	0.3113
											}
										}
									}
								}
								JOINT RFinger2
								{
									OFFSET	-10.7197	1.0668	0.2554
									CHANNELS 3 Xrotation Yrotation Zrotation
									JOINT RFinger21
									{
										OFFSET	-4.8849	0.0136	-0.0289
										CHANNELS 3 Xrotation Yrotation Zrotation
										JOINT RFinger22
										{
											OFFSET	-2.7077	0.0083	-0.0166
											CHANNELS 3 Xrotation Yrotation Zrotation
											End Site
											{
												OFFSET	-2.4320	-0.1717	0.0033
											}
										}
									}
								}
								JOINT RFinger3
								{
									OFFSET	-10.1592	0.7119	-2.4035
									CHANNELS 3 Xrotation Yrotation Zrotation
									JOINT RFinger31
									{
										OFFSET	-4.4325	-0.2244	-0.2775
										CHANNELS 3 Xrotation Yrotation Zrotation
										JOINT RFinger32
										{
											OFFSET	-2.5259	-0.1271	-0.1587
											CHANNELS 3 Xrotation Yrotation Zrotation
											End Site
											{
												OFFSET	-2.2333	-0.2746	-0.1056
											}
										}
									}
								}
								JOINT RFinger4
								{
									OFFSET	-9.4273	-0.7164	-4.1508
									CHANNELS 3 Xrotation Yrotation Zrotation
									JOINT RFinger41
									{
										OFFSET	-2.7264	-0.5686	-0.7526
										CHANNELS 3 Xrotation Yrotation Zrotation
										JOINT RFinger42
										{
											OFFSET	-1.9993	-0.4162	-0.5523
											CHANNELS 3 Xrotation Yrotation Zrotation
											End Site
											{
												OFFSET	-1.7745	-0.4876	-0.4071
											}
										}
									}
								}
								JOINT RFinger0
								{
									OFFSET	-2.1850	-1.6536	1.6563
									CHANNELS 3 Xrotation Yrotation Zrotation
									JOINT RFinger01
									{
										OFFSET	-4.0679	-1.3361	3.0671
										CHANNELS 3 Xrotation Yrotation Zrotation
										JOINT RFinger02
										{
											OFFSET	-2.6786	-0.9584	1.9299
											CHANNELS 3 Xrotation Yrotation Zrotation
											End Site
											{
												OFFSET	-1.9698	-0.6781	1.3488
											}
										}
									}
								}
							}
						}
					}
				}
			}
		}
	}
	JOINT RThigh
	{
		OFFSET	-10.9616	4.6318	-0.9035
		CHANNELS 3 Xrotation Yrotation Zrotation
		JOINT RShin
		{
			OFFSET	-0.8771	-47.6778	0.0000
			CHANNELS 3 Xrotation Yrotation Zrotation
			JOINT RFoot
			{
				OFFSET	0.0000	-46.8167	0.0000
				CHANNELS 3 Xrotation Yrotation Zrotation
				JOINT RToe
				{
					OFFSET	0.0000	-5.1456	10.7601
					CHANNELS 3 Xrotation Yrotation Zrotation
					End Site
					{
						OFFSET	0.0000	0.0000	7.2185
					}
				}
			}
		}
	}
	JOINT LThigh
	{
		OFFSET	10.9614	4.6322	-0.9035
		CHANNELS 3 Xrotation Yrotation Zrotation
		JOINT LShin
		{
			OFFSET	0.8772	-47.6781	0.0000
			CHANNELS 3 Xrotation Yrotation Zrotation
			JOINT LFoot
			{
				OFFSET	0.0000	-46.8167	0.0000
				CHANNELS 3 Xrotation Yrotation Zrotation
				JOINT LToe
				{
					OFFSET	0.0000	-5.1456	10.7601
					CHANNELS 3 Xrotation Yrotation Zrotation
					End Site
					{
						OFFSET	0.0000	0.0000	7.2185
					}
				}
			}
		}
	}
}
MOTION
Frames:	7
Frame Time: 0.0333333000
	-11.1181	82.6824	-105.1530	94.138980	20.079590	-72.108240	0.000000	0.000000	0.000000	2.321385	5.536235	0.195586	7.870822	18.451180	-0.244834	0.000000	0.000000	0.000000	-37.135540	-22.917070	-20.182360	0.000000	0.000000	-10.653720	-45.219600	-67.240620	-100.465800	0.000000	-1.416791	0.000000	0.000000	0.000000	0.000000	0.000000	0.000000	0.000000	0.000000	0.000000	0.000000	0.000000	0.000000	0.000000	0.000000	0.000000	0.000000	0.000000	0.000000	0.000000	0.000000	0.000000	0.000000	0.000000	0.000000	0.000000	0.000000	0.000000	0.000000	0.000000	0.000000	0.000000	0.000000	0.000000	0.000000	0.000000	0.000000	0.000000	0.000000	0.000000	0.000000	0.000000	0.000000	0.000000	0.000000	0.000000	0.000000	0.000000	0.000000	0.000000	0.000000	0.000000	3.389703	101.674600	9.037056	-38.855970	0.000000	13.195600	0.000000	-90.974600	51.780480	-10.846140	0.000000	0.000000	0.000000	0.000000	0.000000	0.000000	0.000000	0.000000	0.000000	0.000000	0.000000	0.000000	0.000000	0.000000	0.000000	0.000000	0.000000	0.000000	0.000000	0.000000	0.000000	0.000000	0.000000	0.000000	0.000000	0.000000	0.000000	0.000000	0.000000	0.000000	0.000000	0.000000	0.000000	0.000000	0.000000	0.000000	0.000000	0.000000	0.000000	0.000000	0.000000	0.000000	0.000000	0.000000	0.000000	-127.430400	-29.337890	-42.626200	75.090720	0.000005	-0.000004	-36.550230	-12.257960	-11.726810	0.000000	0.000000	0.000000	-133.804500	-9.412195	-26.784850	54.857040	0.000005	-0.000001	0.136452	0.057634	0.026113	0.000000	0.000000	0.000000
	-10.7159	82.8431	-105.5139	92.691240	20.560930	-71.155260	0.000000	0.000000	0.000000	2.415119	5.667746	0.358238	8.135925	18.914240	0.250669	0.000000	0.000000	0.000000	-36.582220	-21.983790	-20.756790	0.000000	0.000000	-10.938510	-39.050660	-66.147290	-94.727390	0.000000	-1.202113	0.000000	0.000000	0.000000	0.000000	0.000000	0.000000	0.000000	0.000000	0.000000	0.000000	0.000000	0.000000	0.000000	0.000000	0.000000	0.000000	0.000000	0.000000	0.000000	0.000000	0.000000	0.000000	0.000000	0.000000	0.000000	0.000000	0.000000	0.000000	0.000000	0.000000	0.000000	0.000000	0.000000	0.000000	0.000000	0.000000	0.000000	0.000000	0.000000	0.000000	0.000000	0.000000	0.000000	0.000000	0.000000	0.000000	0.000000	0.000000	0.000000	0.000000	0.000000	3.957693	94.895200	17.992120	-40.133880	0.000000	15.301350	0.000000	-74.294980	45.253550	-17.949230	0.000000	0.000000	0.000000	0.000000	0.000000	0.000000	0.000000	0.000000	0.000000	0.000000	0.000000	0.000000	0.000000	0.000000	0.000000	0.000000	0.000000	0.000000	0.000000	0.000000	0.000000	0.000000	0.000000	0.000000	0.000000	0.000000	0.000000	0.000000	0.000000	0.000000	0.000000	0.000000	0.000000	0.000000	0.000000	0.000000	0.000000	0.000000	0.000000	0.000000	0.000000	0.000000	0.000000	0.000000	0.000000	-125.916400	-30.525900	-42.027480	74.119520	0.000005	-0.000004	-36.233910	-10.264760	-9.795741	0.000000	0.000000	0.000000	-132.103900	-9.534408	-25.461500	56.170430	0.000005	-0.000001	-0.115253	0.193839	0.092620	0.000000	0.000000	0.000000
	-10.2902	82.7432	-105.9049	91.077220	21.308710	-70.092450	0.000000	0.000000	0.000000	2.499523	5.682171	0.491391	8.373062	18.984110	0.677914	0.000000	0.000000	0.000000	-36.653080	-20.932880	-18.143800	0.000000	0.000000	-11.176060	-28.890560	-64.163760	-83.557420	0.000000	-1.176368	0.000000	0.000000	0.000000	0.000000	0.000000	0.000000	0.000000	0.000000	0.000000	0.000000	0.000000	0.000000	0.000000	0.000000	0.000000	0.000000	0.000000	0.000000	0.000000	0.000000	0.000000	0.000000	0.000000	0.000000	0.000000	0.000000	0.000000	0.000000	0.000000	0.000000	0.000000	0.000000	0.000000	0.000000	0.000000	0.000000	0.000000	0.000000	0.000000	0.000000	0.000000	0.000000	0.000000	0.000000	0.000000	0.000000	0.000000	0.000000	0.000000	0.000000	0.000000	4.620214	83.213920	31.064380	-36.932780	0.000000	15.648030	0.000000	-37.649660	67.617940	-19.634070	0.000000	0.000000	0.000000	0.000000	0.000000	0.000000	0.000000	0.000000	0.000000	0.000000	0.000000	0.000000	0.000000	0.000000	0.000000	0.000000	0.000000	0.000000	0.000000	0.000000	0.000000	0.000000	0.000000	0.000000	0.000000	0.000000	0.000000	0.000000	0.000000	0.000000	0.000000	0.000000	0.000000	0.000000	0.000000	0.000000	0.000000	0.000000	0.000000	0.000000	0.000000	0.000000	0.000000	0.000000	0.000000	-124.390700	-31.907570	-41.719140	73.749090	0.000005	-0.000004	-36.871770	-8.946853	-8.637569	0.000000	0.000000	0.000000	-129.633100	-10.163810	-24.302490	55.292380	0.000005	-0.000001	-0.590034	-0.412228	-0.198294	0.000000	0.000000	0.000000
	-9.9410	82.5061	-106.4745	89.096180	22.379250	-68.851550	0.000000	0.000000	0.000000	2.547346	5.606339	0.609675	8.490438	18.751970	1.108713	0.000000	0.000000	0.000000	-35.428190	-20.034910	-15.730070	0.000000	0.000000	-11.289190	-17.153410	-59.883000	-69.454860	0.000000	-1.046456	0.000000	0.000000	0.000000	0.000000	0.000000	0.000000	0.000000	0.000000	0.000000	0.000000	0.000000	0.000000	0.000000	0.000000	0.000000	0.000000	0.000000	0.000000	0.000000	0.000000	0.000000	0.000000	0.000000	0.000000	0.000000	0.000000	0.000000	0.000000	0.000000	0.000000	0.000000	0.000000	0.000000	0.000000	0.000000	0.000000	0.000000	0.000000	0.000000	0.000000	0.000000	0.000000	0.000000	0.000000	0.000000	0.000000	0.000000	0.000000	0.000000	0.000000	0.000000	5.349302	63.755050	45.414360	-24.962710	0.000000	14.870760	0.000000	-5.147666	67.996510	-28.476050	0.000000	0.000000	0.000000	0.000000	0.000000	0.000000	0.000000	0.000000	0.000000	0.000000	0.000000	0.000000	0.000000	0.000000	0.000000	0.000000	0.000000	0.000000	0.000000	0.000000	0.000000	0.000000	0.000000	0.000000	0.000000	0.000000	0.000000	0.000000	0.000000	0.000000	0.000000	0.000000	0.000000	0.000000	0.000000	0.000000	0.000000	0.000000	0.000000	0.000000	0.000000	0.000000	0.000000	0.000000	0.000000	-123.206600	-33.742430	-41.951130	73.594870	0.000005	-0.000004	-37.071640	-8.957474	-8.675284	0.000000	0.000000	0.000000	-127.679900	-12.083380	-23.922720	54.580720	0.000005	-0.000001	-0.911376	-0.862445	-0.416869	0.000000	0.000000	0.000000
	-9.5045	82.2541	-107.2452	86.520160	23.551860	-67.052770	0.000000	0.000000	0.000000	2.567351	5.482228	0.750935	8.488252	18.363920	1.525305	0.000000	0.000000	0.000000	-33.774200	-18.623180	-13.510430	0.000000	0.000000	-11.219420	-7.786419	-53.510770	-57.310290	0.000000	-0.941046	0.000000	0.000000	0.000000	0.000000	0.000000	0.000000	0.000000	0.000000	0.000000	0.000000	0.000000	0.000000	0.000000	0.000000	0.000000	0.000000	0.000000	0.000000	0.000000	0.000000	0.000000	0.000000	0.000000	0.000000	0.000000	0.000000	0.000000	0.000000	0.000000	0.000000	0.000000	0.000000	0.000000	0.000000	0.000000	0.000000	0.000000	0.000000	0.000000	0.000000	0.000000	0.000000	0.000000	0.000000	0.000000	0.000000	0.000000	0.000000	0.000000	0.000000	0.000000	6.025661	37.031000	55.016290	-3.723499	0.000000	13.174540	0.000000	10.952420	63.290630	-26.301300	0.000000	0.000000	0.000000	0.000000	0.000000	0.000000	0.000000	0.000000	0.000000	0.000000	0.000000	0.000000	0.000000	0.000000	0.000000	0.000000	0.000000	0.000000	0.000000	0.000000	0.000000	0.000000	0.000000	0.000000	0.000000	0.000000	0.000000	0.000000	0.000000	0.000000	0.000000	0.000000	0.000000	0.000000	0.000000	0.000000	0.000000	0.000000	0.000000	0.000000	0.000000	0.000000	0.000000	0.000000	0.000000	-121.566500	-35.127670	-41.651010	73.267770	0.000005	-0.000004	-36.562370	-9.534366	-9.155454	0.000000	0.000000	0.000000	-126.518100	-13.713880	-23.738940	55.835480	0.000005	-0.000001	-0.585538	-0.592333	-0.289156	0.000000	0.000000	0.000000
	-8.9874	82.1459	-108.1677	83.543440	24.647490	-64.797020	0.000000	0.000000	0.000000	2.557592	5.355065	0.846936	8.418996	17.956900	1.910689	0.000000	0.000000	0.000000	-32.144620	-16.525670	-11.377810	0.000000	0.000000	-11.150100	-1.445572	-46.286450	-49.374230	0.000000	-1.118433	0.000000	0.000000	0.000000	0.000000	0.000000	0.000000	0.000000	0.000000	0.000000	0.000000	0.000000	0.000000	0.000000	0.000000	0.000000	0.000000	0.000000	0.000000	0.000000	0.000000	0.000000	0.000000	0.000000	0.000000	0.000000	0.000000	0.000000	0.000000	0.000000	0.000000	0.000000	0.000000	0.000000	0.000000	0.000000	0.000000	0.000000	0.000000	0.000000	0.000000	0.000000	0.000000	0.000000	0.000000	0.000000	0.000000	0.000000	0.000000	0.000000	0.000000	0.000000	6.472331	13.571230	58.239460	16.620270	0.000000	10.512980	0.000000	13.755020	58.906760	-23.432740	0.000000	0.000000	0.000000	0.000000	0.000000	0.000000	0.000000	0.000000	0.000000	0.000000	0.000000	0.000000	0.000000	0.000000	0.000000	0.000000	0.000000	0.000000	0.000000	0.000000	0.000000	0.000000	0.000000	0.000000	0.000000	0.000000	0.000000	0.000000	0.000000	0.000000	0.000000	0.000000	0.000000	0.000000	0.000000	0.000000	0.000000	0.000000	0.000000	0.000000	0.000000	0.000000	0.000000	0.000000	0.000000	-119.060200	-35.583340	-40.328590	72.602970	0.000005	-0.000004	-35.157940	-10.685830	-10.015090	0.000000	0.000000	0.000000	-125.910900	-14.725840	-23.459700	58.453180	0.000005	-0.000001	0.178012	-0.182850	-0.090299	0.000000	0.000000	0.000000
	-8.4123	82.1787	-109.1133	80.343770	25.688020	-62.279800	0.000000	0.000000	0.000000	2.544639	5.256681	0.947530	8.336344	17.646050	2.283123	0.000000	0.000000	0.000000	-30.547290	-14.409880	-9.949530	0.000000	0.000000	-11.162120	3.313969	-38.690530	-44.798150	0.000000	-1.464799	0.000000	0.000000	0.000000	0.000000	0.000000	0.000000	0.000000	0.000000	0.000000	0.000000	0.000000	0.000000	0.000000	0.000000	0.000000	0.000000	0.000000	0.000000	0.000000	0.000000	0.000000	0.000000	0.000000	0.000000	0.000000	0.000000	0.000000	0.000000	0.000000	0.000000	0.000000	0.000000	0.000000	0.000000	0.000000	0.000000	0.000000	0.000000	0.000000	0.000000	0.000000	0.000000	0.000000	0.000000	0.000000	0.000000	0.000000	0.000000	0.000000	0.000000	0.000000	6.679929	-1.248632	58.890450	30.080820	0.000000	7.120266	0.000000	19.296200	59.827240	-18.536520	0.000000	0.000000	0.000000	0.000000	0.000000	0.000000	0.000000	0.000000	0.000000	0.000000	0.000000	0.000000	0.000000	0.000000	0.000000	0.000000	0.000000	0.000000	0.000000	0.000000	0.000000	0.000000	0.000000	0.000000	0.000000	0.000000	0.000000	0.000000	0.000000	0.000000	0.000000	0.000000	0.000000	0.000000	0.000000	0.000000	0.000000	0.000000	0.000000	0.000000	0.000000	0.000000	0.000000	0.000000	0.000000	-115.752600	-35.438310	-38.277360	71.681690	0.000005	-0.000004	-33.428650	-12.253400	-11.152350	0.000000	0.000000	0.000000	-125.536300	-16.041070	-23.407910	61.424800	0.000006	-0.000002	0.687443	-0.269511	-0.128880	0.000000	0.000000	0.000000
